# xmcd CD database file
#
# Track frame offsets:
#	150
#	7340
#	27660
#	30742
#	53177
#	55527
#	71940
#	79857
#	85602
#	102772
#	104675
#	123945
#	127065
#	148370
#	148800
#	170700
#	176027
#	197025
#	198620
#	218377
#	223235
#	243810
#
# Disc length: 3265 seconds
#
# Revision: 0
# Processed by: cddbd v1.5.1PL2 Copyright (c) Steve Scherf et al.
# Submitted via: CDex 1.51
#
DISCID=580cbf16
DTITLE=Charlie Parker - The Complete Royal Roost Live Recordings On Savoy Years Vol. 2
DYEAR=1949
DGENRE=Jazz
TTITLE0=Announcers-Bob Garrity, Symphony Sid Talking Over Sid's Theme/Jingle Bells
TTITLE1=Half Nelson
TTITLE2=Announcer-Symphony Sid
TTITLE3=White Christmas
TTITLE4=Announcer-Symphony Sid
TTITLE5=Little Willie Leaps
TTITLE6=Announcers-Symphony Sid, Bob Garrty (52nd Street Theme)
TTITLE7=The New Year's Eve Broadcast/Announcers-Symphony Sid (Jumpin' With Symphony Sid)
TTITLE8=Be-Bop
TTITLE9=The New Year's Eve Broadcast Continued/Announcers-Symphony Sid
TTITLE10=On A Slow Boat To China
TTITLE11=Announcer-Symphony Sid
TTITLE12=Ornithology
TTITLE13=Announcer-Symphony Sid
TTITLE14=Groovin' High
TTITLE15=Announcer-Symphony Sid, Charlie Parker
TTITLE16=East Of The Sun
TTITLE17=Announcer-Symphony Sid
TTITLE18=Cheryl
TTITLE19=Announcer-Symphony Sid
TTITLE20=How High The Moon
TTITLE21=Jumpin' With Symphony Sid With Announcer
EXTD=YEAR: 1949
EXTT0=
EXTT1=
EXTT2=
EXTT3=
EXTT4=
EXTT5=
EXTT6=
EXTT7=
EXTT8=
EXTT9=
EXTT10=
EXTT11=
EXTT12=
EXTT13=
EXTT14=
EXTT15=
EXTT16=
EXTT17=
EXTT18=
EXTT19=
EXTT20=
EXTT21=
PLAYORDER=
